<svg xmlns="http://www.w3.org/2000/svg" viewBox="0 0 60 32" width="60" height="32">
  <!-- catalpha: frame 4 of 5, traced from footage.
       Rows of set pixels as rect runs; see tools/trace-runner.py.
       White; the widget recolours it to the bar text colour. -->
  <rect x="42.850" y="0.850" width="2.300" height="2.300" fill="#fff"/>
  <rect x="46.850" y="0.850" width="3.300" height="1.300" fill="#fff"/>
  <rect x="45.850" y="1.850" width="4.300" height="2.300" fill="#fff"/>
  <rect x="41.850" y="2.850" width="3.300" height="1.300" fill="#fff"/>
  <rect x="40.850" y="3.850" width="9.300" height="1.300" fill="#fff"/>
  <rect x="39.850" y="4.850" width="2.300" height="1.300" fill="#fff"/>
  <rect x="42.850" y="4.850" width="7.300" height="1.300" fill="#fff"/>
  <rect x="39.850" y="5.850" width="11.300" height="1.300" fill="#fff"/>
  <rect x="38.850" y="6.850" width="6.300" height="2.300" fill="#fff"/>
  <rect x="45.850" y="6.850" width="3.300" height="3.300" fill="#fff"/>
  <rect x="50.850" y="6.850" width="1.300" height="2.300" fill="#fff"/>
  <rect x="37.850" y="8.850" width="7.300" height="1.300" fill="#fff"/>
  <rect x="49.850" y="8.850" width="2.300" height="1.300" fill="#fff"/>
  <rect x="28.850" y="9.850" width="23.300" height="1.300" fill="#fff"/>
  <rect x="26.850" y="10.850" width="25.300" height="1.300" fill="#fff"/>
  <rect x="12.850" y="11.850" width="38.300" height="1.300" fill="#fff"/>
  <rect x="9.850" y="12.850" width="40.300" height="1.300" fill="#fff"/>
  <rect x="6.850" y="13.850" width="41.300" height="1.300" fill="#fff"/>
  <rect x="6.850" y="14.850" width="8.300" height="1.300" fill="#fff"/>
  <rect x="21.850" y="14.850" width="26.300" height="1.300" fill="#fff"/>
  <rect x="21.850" y="15.850" width="27.300" height="1.300" fill="#fff"/>
  <rect x="20.850" y="16.850" width="29.300" height="1.300" fill="#fff"/>
  <rect x="19.850" y="17.850" width="31.300" height="1.300" fill="#fff"/>
  <rect x="17.850" y="18.850" width="21.300" height="1.300" fill="#fff"/>
  <rect x="42.850" y="18.850" width="8.300" height="1.300" fill="#fff"/>
  <rect x="16.850" y="19.850" width="20.300" height="1.300" fill="#fff"/>
  <rect x="44.850" y="19.850" width="6.300" height="1.300" fill="#fff"/>
  <rect x="15.850" y="20.850" width="16.300" height="1.300" fill="#fff"/>
  <rect x="46.850" y="20.850" width="2.300" height="1.300" fill="#fff"/>
  <rect x="14.850" y="21.850" width="13.300" height="1.300" fill="#fff"/>
  <rect x="14.850" y="22.850" width="4.300" height="1.300" fill="#fff"/>
  <rect x="19.850" y="22.850" width="7.300" height="1.300" fill="#fff"/>
  <rect x="14.850" y="23.850" width="2.300" height="1.300" fill="#fff"/>
  <rect x="20.850" y="23.850" width="4.300" height="1.300" fill="#fff"/>
  <rect x="19.850" y="24.850" width="4.300" height="2.300" fill="#fff"/>
  <rect x="19.850" y="26.850" width="3.300" height="1.300" fill="#fff"/>
</svg>
