<svg xmlns="http://www.w3.org/2000/svg" viewBox="0 0 60 32" width="60" height="32">
  <!-- sway: frame 1 of 5, traced from footage.
       Rows of set pixels as rect runs; see tools/trace-runner.py.
       White; the widget recolours it to the bar text colour. -->
  <rect x="29.50" y="1.00" width="3.00" height="1.00" fill="#fff"/>
  <rect x="28.50" y="2.00" width="5.00" height="1.00" fill="#fff"/>
  <rect x="28.50" y="3.00" width="5.00" height="1.00" fill="#fff"/>
  <rect x="25.50" y="4.00" width="7.00" height="1.00" fill="#fff"/>
  <rect x="24.50" y="5.00" width="7.00" height="1.00" fill="#fff"/>
  <rect x="23.50" y="6.00" width="8.00" height="1.00" fill="#fff"/>
  <rect x="23.50" y="7.00" width="8.00" height="1.00" fill="#fff"/>
  <rect x="21.50" y="8.00" width="12.00" height="1.00" fill="#fff"/>
  <rect x="21.50" y="9.00" width="12.00" height="1.00" fill="#fff"/>
  <rect x="21.50" y="10.00" width="12.00" height="1.00" fill="#fff"/>
  <rect x="21.50" y="11.00" width="13.00" height="1.00" fill="#fff"/>
  <rect x="22.50" y="12.00" width="12.00" height="1.00" fill="#fff"/>
  <rect x="24.50" y="13.00" width="11.00" height="1.00" fill="#fff"/>
  <rect x="24.50" y="14.00" width="11.00" height="1.00" fill="#fff"/>
  <rect x="25.50" y="15.00" width="8.00" height="1.00" fill="#fff"/>
  <rect x="24.50" y="16.00" width="8.00" height="1.00" fill="#fff"/>
  <rect x="24.50" y="17.00" width="9.00" height="1.00" fill="#fff"/>
  <rect x="24.50" y="18.00" width="9.00" height="1.00" fill="#fff"/>
  <rect x="23.50" y="19.00" width="11.00" height="1.00" fill="#fff"/>
  <rect x="23.50" y="20.00" width="4.00" height="1.00" fill="#fff"/>
  <rect x="30.50" y="20.00" width="4.00" height="1.00" fill="#fff"/>
  <rect x="22.50" y="21.00" width="4.00" height="1.00" fill="#fff"/>
  <rect x="31.50" y="21.00" width="3.00" height="1.00" fill="#fff"/>
  <rect x="22.50" y="22.00" width="3.00" height="1.00" fill="#fff"/>
  <rect x="31.50" y="22.00" width="4.00" height="1.00" fill="#fff"/>
  <rect x="22.50" y="23.00" width="3.00" height="1.00" fill="#fff"/>
  <rect x="32.50" y="23.00" width="3.00" height="1.00" fill="#fff"/>
  <rect x="21.50" y="24.00" width="3.00" height="1.00" fill="#fff"/>
  <rect x="33.50" y="24.00" width="2.00" height="1.00" fill="#fff"/>
  <rect x="21.50" y="25.00" width="3.00" height="1.00" fill="#fff"/>
  <rect x="33.50" y="25.00" width="3.00" height="1.00" fill="#fff"/>
  <rect x="21.50" y="26.00" width="2.00" height="1.00" fill="#fff"/>
  <rect x="34.50" y="26.00" width="2.00" height="1.00" fill="#fff"/>
  <rect x="21.50" y="27.00" width="2.00" height="1.00" fill="#fff"/>
  <rect x="34.50" y="27.00" width="2.00" height="1.00" fill="#fff"/>
  <rect x="21.50" y="28.00" width="2.00" height="1.00" fill="#fff"/>
  <rect x="34.50" y="28.00" width="3.00" height="1.00" fill="#fff"/>
  <rect x="21.50" y="29.00" width="2.00" height="1.00" fill="#fff"/>
  <rect x="35.50" y="29.00" width="2.00" height="1.00" fill="#fff"/>
  <rect x="21.50" y="30.00" width="1.00" height="1.00" fill="#fff"/>
  <rect x="35.50" y="30.00" width="2.00" height="1.00" fill="#fff"/>
</svg>
